<?xml version="1.0" standalone="yes"?>
<svg xmlns="http://www.w3.org/2000/svg" width="225" height="225">
<path style="fill:#000000; stroke:none;" d="M0 0L0 225L225 225L225 0L0 0z"/>
<path style="fill:#9a9a9a; stroke:none;" d="M85.6667 20.3333C85.2222 20.7778 86.2778 20.7222 86.3333 20.6667C86.7778 20.2222 85.7222 20.2778 85.6667 20.3333z"/>
<path style="fill:#b9b9b9; stroke:none;" d="M84 21L83 23C84.2627 22.0287 84.3919 22.3063 84 21z"/>
<path style="fill:#ffffff; stroke:none;" d="M60 46C68.5972 58.2048 81.4468 68.4468 92 79C102.871 89.8708 113.429 103.145 126 112L60 178C64.9682 185.053 71.8852 190.929 78 196.999C80.023 199.007 82.83 202.793 86 202.793C89.1699 202.793 91.977 199.007 94 196.999L110 181L178 113C171.47 103.73 162.011 96.0107 154 88L110 44L94 28.0008C91.977 25.9926 89.1699 22.2068 86 22.2068C82.8301 22.2068 80.0229 25.9926 78 28.0008L60 46z"/>
<path style="fill:#909090; stroke:none;" d="M87 21L88 22L87 21z"/>
<path style="fill:#959595; stroke:none;" d="M88 22L89 23L88 22z"/>
<path style="fill:#b5b5b5; stroke:none;" d="M82 23L83 24L82 23z"/>
<path style="fill:#959595; stroke:none;" d="M89 23L90 24L89 23z"/>
<path style="fill:#b5b5b5; stroke:none;" d="M81 24L82 25L81 24z"/>
<path style="fill:#959595; stroke:none;" d="M90 24L91 25L90 24z"/>
<path style="fill:#b9b9b9; stroke:none;" d="M80 25L81 26L80 25z"/>
<path style="fill:#909090; stroke:none;" d="M91 25L92 26L91 25z"/>
<path style="fill:#b5b5b5; stroke:none;" d="M79 26L80 27L79 26z"/>
<path style="fill:#959595; stroke:none;" d="M92 26L93 27L92 26z"/>
<path style="fill:#b5b5b5; stroke:none;" d="M78 27L79 28L78 27z"/>
<path style="fill:#959595; stroke:none;" d="M93 27L94 28L93 27z"/>
<path style="fill:#b5b5b5; stroke:none;" d="M77 28L78 29L77 28z"/>
<path style="fill:#909090; stroke:none;" d="M94 28L95 29L94 28z"/>
<path style="fill:#bababa; stroke:none;" d="M76 29L77 30L76 29z"/>
<path style="fill:#959595; stroke:none;" d="M95 29L96 30L95 29z"/>
<path style="fill:#b5b5b5; stroke:none;" d="M75 30L76 31L75 30z"/>
<path style="fill:#959595; stroke:none;" d="M96 30L97 31L96 30z"/>
<path style="fill:#b5b5b5; stroke:none;" d="M74 31L75 32L74 31z"/>
<path style="fill:#959595; stroke:none;" d="M97 31L98 32L97 31z"/>
<path style="fill:#b5b5b5; stroke:none;" d="M73 32L74 33L73 32z"/>
<path style="fill:#909090; stroke:none;" d="M98 32L99 33L98 32z"/>
<path style="fill:#b9b9b9; stroke:none;" d="M72 33L73 34L72 33z"/>
<path style="fill:#959595; stroke:none;" d="M99 33L100 34L99 33z"/>
<path style="fill:#b5b5b5; stroke:none;" d="M71 34L72 35L71 34z"/>
<path style="fill:#959595; stroke:none;" d="M100 34L101 35L100 34z"/>
<path style="fill:#b5b5b5; stroke:none;" d="M70 35L71 36L70 35z"/>
<path style="fill:#909090; stroke:none;" d="M101 35L102 36L101 35z"/>
<path style="fill:#b9b9b9; stroke:none;" d="M69 36L70 37L69 36z"/>
<path style="fill:#959595; stroke:none;" d="M102 36L103 37L102 36z"/>
<path style="fill:#b5b5b5; stroke:none;" d="M68 37L69 38L68 37z"/>
<path style="fill:#959595; stroke:none;" d="M103 37L104 38L103 37z"/>
<path style="fill:#b5b5b5; stroke:none;" d="M67 38L68 39L67 38z"/>
<path style="fill:#959595; stroke:none;" d="M104 38L105 39L104 38z"/>
<path style="fill:#b5b5b5; stroke:none;" d="M66 39L67 40L66 39z"/>
<path style="fill:#909090; stroke:none;" d="M105 39L106 40L105 39z"/>
<path style="fill:#b9b9b9; stroke:none;" d="M65 40L66 41L65 40z"/>
<path style="fill:#959595; stroke:none;" d="M106 40L107 41L106 40z"/>
<path style="fill:#b5b5b5; stroke:none;" d="M64 41L65 42L64 41z"/>
<path style="fill:#959595; stroke:none;" d="M107 41L108 42L107 41z"/>
<path style="fill:#b5b5b5; stroke:none;" d="M63 42L64 43L63 42z"/>
<path style="fill:#959595; stroke:none;" d="M108 42L109 43L108 42z"/>
<path style="fill:#b5b5b5; stroke:none;" d="M62 43L63 44L62 43z"/>
<path style="fill:#909090; stroke:none;" d="M109 43L110 44L109 43z"/>
<path style="fill:#b5b5b5; stroke:none;" d="M61 44L62 45L61 44z"/>
<path style="fill:#959595; stroke:none;" d="M110 44L111 45L110 44z"/>
<path style="fill:#b5b5b5; stroke:none;" d="M60 45L61 46L60 45z"/>
<path style="fill:#959595; stroke:none;" d="M111 45L112 46L111 45z"/>
<path style="fill:#909090; stroke:none;" d="M112 46L113 47L112 46z"/>
<path style="fill:#959595; stroke:none;" d="M113 47L114 48L113 47M114 48L115 49L114 48z"/>
<path style="fill:#343434; stroke:none;" d="M62 49L63 50L62 49z"/>
<path style="fill:#959595; stroke:none;" d="M115 49L116 50L115 49z"/>
<path style="fill:#313131; stroke:none;" d="M63 50L64 51L63 50z"/>
<path style="fill:#909090; stroke:none;" d="M116 50L117 51L116 50z"/>
<path style="fill:#959595; stroke:none;" d="M117 51L118 52L117 51z"/>
<path style="fill:#2e2e2e; stroke:none;" d="M65 52L66 53L65 52z"/>
<path style="fill:#959595; stroke:none;" d="M118 52L119 53L118 52z"/>
<path style="fill:#343434; stroke:none;" d="M66 53L67 54L66 53z"/>
<path style="fill:#959595; stroke:none;" d="M119 53L120 54L119 53z"/>
<path style="fill:#909090; stroke:none;" d="M120 54L121 55L120 54z"/>
<path style="fill:#959595; stroke:none;" d="M121 55L122 56L121 55z"/>
<path style="fill:#313131; stroke:none;" d="M69 56L70 57L69 56z"/>
<path style="fill:#959595; stroke:none;" d="M122 56L123 57L122 56z"/>
<path style="fill:#313131; stroke:none;" d="M70 57L71 58L70 57z"/>
<path style="fill:#909090; stroke:none;" d="M123 57L124 58L123 57z"/>
<path style="fill:#959595; stroke:none;" d="M124 58L125 59L124 58M125 59L126 60L125 59z"/>
<path style="fill:#343434; stroke:none;" d="M73 60L74 61L73 60z"/>
<path style="fill:#959595; stroke:none;" d="M126 60L127 61L126 60z"/>
<path style="fill:#2e2e2e; stroke:none;" d="M74 61L75 62L74 61z"/>
<path style="fill:#909090; stroke:none;" d="M127 61L128 62L127 61z"/>
<path style="fill:#959595; stroke:none;" d="M128 62L129 63L128 62z"/>
<path style="fill:#313131; stroke:none;" d="M76 63L77 64L76 63z"/>
<path style="fill:#959595; stroke:none;" d="M129 63L130 64L129 63z"/>
<path style="fill:#343434; stroke:none;" d="M77 64L78 65L77 64z"/>
<path style="fill:#959595; stroke:none;" d="M130 64L131 65L130 64M131 65L132 66L131 65M132 66L133 67L132 66z"/>
<path style="fill:#343434; stroke:none;" d="M80 67L81 68L80 67z"/>
<path style="fill:#959595; stroke:none;" d="M133 67L134 68L133 67z"/>
<path style="fill:#313131; stroke:none;" d="M81 68L82 69L81 68z"/>
<path style="fill:#909090; stroke:none;" d="M134 68L135 69L134 68z"/>
<path style="fill:#959595; stroke:none;" d="M135 69L136 70L135 69z"/>
<path style="fill:#2e2e2e; stroke:none;" d="M83 70L84 71L83 70z"/>
<path style="fill:#959595; stroke:none;" d="M136 70L137 71L136 70z"/>
<path style="fill:#343434; stroke:none;" d="M84 71L85 72L84 71z"/>
<path style="fill:#959595; stroke:none;" d="M137 71L138 72L137 71z"/>
<path style="fill:#2e2e2e; stroke:none;" d="M85 72L86 73L85 72z"/>
<path style="fill:#909090; stroke:none;" d="M138 72L139 73L138 72z"/>
<path style="fill:#959595; stroke:none;" d="M139 73L140 74L139 73z"/>
<path style="fill:#313131; stroke:none;" d="M87 74L88 75L87 74z"/>
<path style="fill:#959595; stroke:none;" d="M140 74L141 75L140 74z"/>
<path style="fill:#343434; stroke:none;" d="M88 75L89 76L88 75z"/>
<path style="fill:#909090; stroke:none;" d="M141 75L142 76L141 75z"/>
<path style="fill:#959595; stroke:none;" d="M142 76L143 77L142 76M143 77L144 78L143 77z"/>
<path style="fill:#343434; stroke:none;" d="M91 78L92 79L91 78z"/>
<path style="fill:#959595; stroke:none;" d="M144 78L145 79L144 78z"/>
<path style="fill:#313131; stroke:none;" d="M92 79L93 80L92 79z"/>
<path style="fill:#909090; stroke:none;" d="M145 79L146 80L145 79z"/>
<path style="fill:#959595; stroke:none;" d="M146 80L147 81L146 80z"/>
<path style="fill:#2e2e2e; stroke:none;" d="M94 81L95 82L94 81z"/>
<path style="fill:#959595; stroke:none;" d="M147 81L148 82L147 81z"/>
<path style="fill:#343434; stroke:none;" d="M95 82L96 83L95 82z"/>
<path style="fill:#959595; stroke:none;" d="M148 82L149 83L148 82z"/>
<path style="fill:#909090; stroke:none;" d="M149 83L150 84L149 83z"/>
<path style="fill:#959595; stroke:none;" d="M150 84L151 85L150 84z"/>
<path style="fill:#313131; stroke:none;" d="M98 85L99 86L98 85z"/>
<path style="fill:#959595; stroke:none;" d="M151 85L152 86L151 85z"/>
<path style="fill:#343434; stroke:none;" d="M99 86L100 87L99 86z"/>
<path style="fill:#909090; stroke:none;" d="M152 86L153 87L152 86z"/>
<path style="fill:#959595; stroke:none;" d="M153 87L154 88L153 87M154 88L155 89L154 88z"/>
<path style="fill:#343434; stroke:none;" d="M102 89L103 90L102 89z"/>
<path style="fill:#959595; stroke:none;" d="M155 89L156 90L155 89z"/>
<path style="fill:#2e2e2e; stroke:none;" d="M103 90L104 91L103 90z"/>
<path style="fill:#909090; stroke:none;" d="M156 90L157 91L156 90z"/>
<path style="fill:#959595; stroke:none;" d="M157 91L158 92L157 91z"/>
<path style="fill:#2e2e2e; stroke:none;" d="M105 92L106 93L105 92z"/>
<path style="fill:#959595; stroke:none;" d="M158 92L159 93L158 92z"/>
<path style="fill:#343434; stroke:none;" d="M106 93L107 94L106 93z"/>
<path style="fill:#959595; stroke:none;" d="M159 93L160 94L159 93M160 94L161 95L160 94M161 95L162 96L161 95z"/>
<path style="fill:#343434; stroke:none;" d="M109 96L110 97L109 96z"/>
<path style="fill:#959595; stroke:none;" d="M162 96L163 97L162 96z"/>
<path style="fill:#313131; stroke:none;" d="M110 97L111 98L110 97z"/>
<path style="fill:#909090; stroke:none;" d="M163 97L164 98L163 97z"/>
<path style="fill:#959595; stroke:none;" d="M164 98L165 99L164 98z"/>
<path style="fill:#2e2e2e; stroke:none;" d="M112 99L113 100L112 99z"/>
<path style="fill:#959595; stroke:none;" d="M165 99L166 100L165 99z"/>
<path style="fill:#343434; stroke:none;" d="M113 100L114 101L113 100z"/>
<path style="fill:#959595; stroke:none;" d="M166 100L167 101L166 100z"/>
<path style="fill:#2e2e2e; stroke:none;" d="M114 101L115 102L114 101z"/>
<path style="fill:#909090; stroke:none;" d="M167 101L168 102L167 101z"/>
<path style="fill:#959595; stroke:none;" d="M168 102L169 103L168 102z"/>
<path style="fill:#313131; stroke:none;" d="M116 103L117 104L116 103z"/>
<path style="fill:#959595; stroke:none;" d="M169 103L170 104L169 103z"/>
<path style="fill:#343434; stroke:none;" d="M117 104L118 105L117 104z"/>
<path style="fill:#909090; stroke:none;" d="M170 104L171 105L170 104z"/>
<path style="fill:#959595; stroke:none;" d="M171 105L172 106L171 105M172 106L173 107L172 106z"/>
<path style="fill:#343434; stroke:none;" d="M120 107L121 108L120 107z"/>
<path style="fill:#959595; stroke:none;" d="M173 107L174 108L173 107z"/>
<path style="fill:#313131; stroke:none;" d="M121 108L122 109L121 108z"/>
<path style="fill:#909090; stroke:none;" d="M174 108L175 109L174 108z"/>
<path style="fill:#959595; stroke:none;" d="M175 109L176 110L175 109z"/>
<path style="fill:#2e2e2e; stroke:none;" d="M123 110L124 111L123 110z"/>
<path style="fill:#959595; stroke:none;" d="M176 110L177 111L176 110z"/>
<path style="fill:#343434; stroke:none;" d="M124 111L125 112L124 111z"/>
<path style="fill:#959595; stroke:none;" d="M177 111L178 112L177 111z"/>
<path style="fill:#525252; stroke:none;" d="M125 112L126 113L125 112M178 112L179 113L178 112z"/>
<path style="fill:#343434; stroke:none;" d="M124 113L125 114L124 113z"/>
<path style="fill:#959595; stroke:none;" d="M177 113L178 114L177 113z"/>
<path style="fill:#2e2e2e; stroke:none;" d="M123 114L124 115L123 114z"/>
<path style="fill:#959595; stroke:none;" d="M176 114L177 115L176 114M175 115L176 116L175 115z"/>
<path style="fill:#313131; stroke:none;" d="M121 116L122 117L121 116z"/>
<path style="fill:#909090; stroke:none;" d="M174 116L175 117L174 116z"/>
<path style="fill:#343434; stroke:none;" d="M120 117L121 118L120 117z"/>
<path style="fill:#959595; stroke:none;" d="M173 117L174 118L173 117M172 118L173 119L172 118M171 119L172 120L171 119z"/>
<path style="fill:#343434; stroke:none;" d="M117 120L118 121L117 120z"/>
<path style="fill:#909090; stroke:none;" d="M170 120L171 121L170 120z"/>
<path style="fill:#313131; stroke:none;" d="M116 121L117 122L116 121z"/>
<path style="fill:#959595; stroke:none;" d="M169 121L170 122L169 121M168 122L169 123L168 122z"/>
<path style="fill:#2e2e2e; stroke:none;" d="M114 123L115 124L114 123z"/>
<path style="fill:#909090; stroke:none;" d="M167 123L168 124L167 123z"/>
<path style="fill:#343434; stroke:none;" d="M113 124L114 125L113 124z"/>
<path style="fill:#959595; stroke:none;" d="M166 124L167 125L166 124z"/>
<path style="fill:#2e2e2e; stroke:none;" d="M112 125L113 126L112 125z"/>
<path style="fill:#959595; stroke:none;" d="M165 125L166 126L165 125M164 126L165 127L164 126z"/>
<path style="fill:#313131; stroke:none;" d="M110 127L111 128L110 127z"/>
<path style="fill:#909090; stroke:none;" d="M163 127L164 128L163 127z"/>
<path style="fill:#313131; stroke:none;" d="M109 128L110 129L109 128z"/>
<path style="fill:#959595; stroke:none;" d="M162 128L163 129L162 128M161 129L162 130L161 129M160 130L161 131L160 130z"/>
<path style="fill:#343434; stroke:none;" d="M106 131L107 132L106 131z"/>
<path style="fill:#959595; stroke:none;" d="M159 131L160 132L159 131z"/>
<path style="fill:#2e2e2e; stroke:none;" d="M105 132L106 133L105 132z"/>
<path style="fill:#959595; stroke:none;" d="M158 132L159 133L158 132M157 133L158 134L157 133z"/>
<path style="fill:#2e2e2e; stroke:none;" d="M103 134L104 135L103 134z"/>
<path style="fill:#909090; stroke:none;" d="M156 134L157 135L156 134z"/>
<path style="fill:#343434; stroke:none;" d="M102 135L103 136L102 135z"/>
<path style="fill:#959595; stroke:none;" d="M155 135L156 136L155 135M154 136L155 137L154 136M153 137L154 138L153 137z"/>
<path style="fill:#313131; stroke:none;" d="M99 138L100 139L99 138z"/>
<path style="fill:#909090; stroke:none;" d="M152 138L153 139L152 138z"/>
<path style="fill:#313131; stroke:none;" d="M98 139L99 140L98 139z"/>
<path style="fill:#959595; stroke:none;" d="M151 139L152 140L151 139M150 140L151 141L150 140z"/>
<path style="fill:#909090; stroke:none;" d="M149 141L150 142L149 141z"/>
<path style="fill:#343434; stroke:none;" d="M95 142L96 143L95 142z"/>
<path style="fill:#959595; stroke:none;" d="M148 142L149 143L148 142z"/>
<path style="fill:#2e2e2e; stroke:none;" d="M94 143L95 144L94 143z"/>
<path style="fill:#959595; stroke:none;" d="M147 143L148 144L147 143M146 144L147 145L146 144z"/>
<path style="fill:#2e2e2e; stroke:none;" d="M92 145L93 146L92 145z"/>
<path style="fill:#909090; stroke:none;" d="M145 145L146 146L145 145z"/>
<path style="fill:#343434; stroke:none;" d="M91 146L92 147L91 146z"/>
<path style="fill:#959595; stroke:none;" d="M144 146L145 147L144 146M143 147L144 148L143 147M142 148L143 149L142 148z"/>
<path style="fill:#313131; stroke:none;" d="M88 149L89 150L88 149z"/>
<path style="fill:#909090; stroke:none;" d="M141 149L142 150L141 149z"/>
<path style="fill:#313131; stroke:none;" d="M87 150L88 151L87 150z"/>
<path style="fill:#959595; stroke:none;" d="M140 150L141 151L140 150M139 151L140 152L139 151z"/>
<path style="fill:#2e2e2e; stroke:none;" d="M85 152L86 153L85 152z"/>
<path style="fill:#909090; stroke:none;" d="M138 152L139 153L138 152z"/>
<path style="fill:#343434; stroke:none;" d="M84 153L85 154L84 153z"/>
<path style="fill:#959595; stroke:none;" d="M137 153L138 154L137 153M136 154L137 155L136 154M135 155L136 156L135 155z"/>
<path style="fill:#313131; stroke:none;" d="M81 156L82 157L81 156z"/>
<path style="fill:#909090; stroke:none;" d="M134 156L135 157L134 156z"/>
<path style="fill:#313131; stroke:none;" d="M80 157L81 158L80 157z"/>
<path style="fill:#959595; stroke:none;" d="M133 157L134 158L133 157M132 158L133 159L132 158M131 159L132 160L131 159z"/>
<path style="fill:#313131; stroke:none;" d="M77 160L78 161L77 160z"/>
<path style="fill:#959595; stroke:none;" d="M130 160L131 161L130 160z"/>
<path style="fill:#2e2e2e; stroke:none;" d="M76 161L77 162L76 161z"/>
<path style="fill:#959595; stroke:none;" d="M129 161L130 162L129 161M128 162L129 163L128 162z"/>
<path style="fill:#2e2e2e; stroke:none;" d="M74 163L75 164L74 163z"/>
<path style="fill:#909090; stroke:none;" d="M127 163L128 164L127 163z"/>
<path style="fill:#313131; stroke:none;" d="M73 164L74 165L73 164z"/>
<path style="fill:#959595; stroke:none;" d="M126 164L127 165L126 164M125 165L126 166L125 165M124 166L125 167L124 166z"/>
<path style="fill:#313131; stroke:none;" d="M70 167L71 168L70 167z"/>
<path style="fill:#909090; stroke:none;" d="M123 167L124 168L123 167z"/>
<path style="fill:#313131; stroke:none;" d="M69 168L70 169L69 168z"/>
<path style="fill:#959595; stroke:none;" d="M122 168L123 169L122 168M121 169L122 170L121 169z"/>
<path style="fill:#909090; stroke:none;" d="M120 170L121 171L120 170z"/>
<path style="fill:#313131; stroke:none;" d="M66 171L67 172L66 171z"/>
<path style="fill:#959595; stroke:none;" d="M119 171L120 172L119 171z"/>
<path style="fill:#2e2e2e; stroke:none;" d="M65 172L66 173L65 172z"/>
<path style="fill:#959595; stroke:none;" d="M118 172L119 173L118 172M117 173L118 174L117 173z"/>
<path style="fill:#2e2e2e; stroke:none;" d="M63 174L64 175L63 174z"/>
<path style="fill:#909090; stroke:none;" d="M116 174L117 175L116 174z"/>
<path style="fill:#313131; stroke:none;" d="M62 175L63 176L62 175z"/>
<path style="fill:#959595; stroke:none;" d="M115 175L116 176L115 175M114 176L115 177L114 176M113 177L114 178L113 177z"/>
<path style="fill:#909090; stroke:none;" d="M112 178L113 179L112 178z"/>
<path style="fill:#b9b9b9; stroke:none;" d="M60 179L61 180L60 179z"/>
<path style="fill:#959595; stroke:none;" d="M111 179L112 180L111 179z"/>
<path style="fill:#b9b9b9; stroke:none;" d="M61 180L62 181L61 180z"/>
<path style="fill:#959595; stroke:none;" d="M110 180L111 181L110 180z"/>
<path style="fill:#b9b9b9; stroke:none;" d="M62 181L63 182L62 181z"/>
<path style="fill:#909090; stroke:none;" d="M109 181L110 182L109 181z"/>
<path style="fill:#b5b5b5; stroke:none;" d="M63 182L64 183L63 182z"/>
<path style="fill:#959595; stroke:none;" d="M108 182L109 183L108 182z"/>
<path style="fill:#b5b5b5; stroke:none;" d="M64 183L65 184L64 183z"/>
<path style="fill:#959595; stroke:none;" d="M107 183L108 184L107 183z"/>
<path style="fill:#bababa; stroke:none;" d="M65 184L66 185L65 184z"/>
<path style="fill:#959595; stroke:none;" d="M106 184L107 185L106 184z"/>
<path style="fill:#b5b5b5; stroke:none;" d="M66 185L67 186L66 185z"/>
<path style="fill:#909090; stroke:none;" d="M105 185L106 186L105 185z"/>
<path style="fill:#b5b5b5; stroke:none;" d="M67 186L68 187L67 186z"/>
<path style="fill:#959595; stroke:none;" d="M104 186L105 187L104 186z"/>
<path style="fill:#b5b5b5; stroke:none;" d="M68 187L69 188L68 187z"/>
<path style="fill:#959595; stroke:none;" d="M103 187L104 188L103 187z"/>
<path style="fill:#bababa; stroke:none;" d="M69 188L70 189L69 188z"/>
<path style="fill:#959595; stroke:none;" d="M102 188L103 189L102 188z"/>
<path style="fill:#b5b5b5; stroke:none;" d="M70 189L71 190L70 189z"/>
<path style="fill:#909090; stroke:none;" d="M101 189L102 190L101 189z"/>
<path style="fill:#b5b5b5; stroke:none;" d="M71 190L72 191L71 190z"/>
<path style="fill:#959595; stroke:none;" d="M100 190L101 191L100 190z"/>
<path style="fill:#b9b9b9; stroke:none;" d="M72 191L73 192L72 191z"/>
<path style="fill:#959595; stroke:none;" d="M99 191L100 192L99 191z"/>
<path style="fill:#b9b9b9; stroke:none;" d="M73 192L74 193L73 192z"/>
<path style="fill:#909090; stroke:none;" d="M98 192L99 193L98 192z"/>
<path style="fill:#b5b5b5; stroke:none;" d="M74 193L75 194L74 193z"/>
<path style="fill:#959595; stroke:none;" d="M97 193L98 194L97 193z"/>
<path style="fill:#b5b5b5; stroke:none;" d="M75 194L76 195L75 194z"/>
<path style="fill:#959595; stroke:none;" d="M96 194L97 195L96 194z"/>
<path style="fill:#bababa; stroke:none;" d="M76 195L77 196L76 195z"/>
<path style="fill:#959595; stroke:none;" d="M95 195L96 196L95 195z"/>
<path style="fill:#b5b5b5; stroke:none;" d="M77 196L78 197L77 196z"/>
<path style="fill:#909090; stroke:none;" d="M94 196L95 197L94 196z"/>
<path style="fill:#b5b5b5; stroke:none;" d="M78 197L79 198L78 197z"/>
<path style="fill:#959595; stroke:none;" d="M93 197L94 198L93 197z"/>
<path style="fill:#b5b5b5; stroke:none;" d="M79 198L80 199L79 198z"/>
<path style="fill:#959595; stroke:none;" d="M92 198L93 199L92 198z"/>
<path style="fill:#b9b9b9; stroke:none;" d="M80 199L81 200L80 199z"/>
<path style="fill:#909090; stroke:none;" d="M91 199L92 200L91 199z"/>
<path style="fill:#b5b5b5; stroke:none;" d="M81 200L82 201L81 200z"/>
<path style="fill:#959595; stroke:none;" d="M90 200L91 201L90 200z"/>
<path style="fill:#b5b5b5; stroke:none;" d="M82 201L83 202L82 201z"/>
<path style="fill:#959595; stroke:none;" d="M89 201L90 202L89 201z"/>
<path style="fill:#b9b9b9; stroke:none;" d="M83 202L84 203L83 202z"/>
<path style="fill:#959595; stroke:none;" d="M88 202L89 203L88 202z"/>
<path style="fill:#b9b9b9; stroke:none;" d="M84 203L85 204L84 203z"/>
<path style="fill:#909090; stroke:none;" d="M87 203L88 204L87 203z"/>
<path style="fill:#9a9a9a; stroke:none;" d="M85.6667 204.333C85.2222 204.778 86.2778 204.722 86.3333 204.667C86.7778 204.222 85.7222 204.278 85.6667 204.333z"/>
</svg>
