<?xml version="1.0" standalone="no"?>
<!DOCTYPE svg PUBLIC "-//W3C//DTD SVG 20010904//EN"
 "http://www.w3.org/TR/2001/REC-SVG-20010904/DTD/svg10.dtd">
<svg version="1.0" xmlns="http://www.w3.org/2000/svg"
 width="26.000000pt" height="31.000000pt" viewBox="0 0 26.000000 31.000000"
 preserveAspectRatio="xMidYMid meet">

<g transform="translate(0.000000,31.000000) scale(0.100000,-0.100000)"
fill="#000000" stroke="none">
<path d="M0 155 l0 -155 130 0 130 0 0 155 0 155 -130 0 -130 0 0 -155z m110
60 c0 -9 9 -15 23 -15 19 -1 20 -2 6 -13 -9 -7 -14 -18 -11 -26 3 -8 0 -11 -7
-7 -7 5 -11 -3 -11 -23 0 -17 -4 -31 -10 -31 -5 0 -10 15 -10 32 0 32 0 32
-16 10 -8 -12 -22 -22 -31 -22 -13 0 -10 7 12 30 28 29 28 30 7 30 -12 0 -22
5 -22 10 0 6 11 10 25 10 16 0 25 6 25 15 0 8 5 15 10 15 6 0 10 -7 10 -15z
m99 -77 c17 -40 18 -48 6 -48 -8 0 -15 5 -15 10 0 17 -42 11 -56 -7 -12 -16
-13 -16 -14 -1 0 28 40 112 50 102 5 -5 18 -30 29 -56z"/>
<path d="M166 145 c-3 -9 0 -15 9 -15 16 0 20 16 6 24 -5 3 -11 -1 -15 -9z"/>
</g>
</svg>
