<?xml version="1.0" encoding="UTF-8"?>
<svg version="1.1" xmlns="http://www.w3.org/2000/svg" width="181" height="148">
<path d="M0 0 C59.73 0 119.46 0 181 0 C181 48.84 181 97.68 181 148 C121.27 148 61.54 148 0 148 C0 99.16 0 50.32 0 0 Z " fill="none" transform="translate(0,0)"/>
<path d="M0 0 C4.29 0 8.58 0 13 0 C13 4.62 13 9.24 13 14 C29.17 14 45.34 14 62 14 C62 18.29 62 22.58 62 27 C52.1 27.495 52.1 27.495 42 28 C40.865625 30.825625 39.73125 33.65125 38.5625 36.5625 C33.44116745 48.91751536 27.24839044 60.0075602 18.3359375 70.046875 C17.67464844 71.01367188 17.67464844 71.01367188 17 72 C18.11440652 75.34321955 18.97472343 76.06019619 21.625 78.25 C32.91532258 87.92741935 32.91532258 87.92741935 33.1875 91.375 C32.795625 92.24125 32.40375 93.1075 32 94 C31.67515625 94.76183594 31.3503125 95.52367188 31.015625 96.30859375 C30.04706238 98.55804534 29.03879251 100.78229877 28 103 C20.84198775 97.17371096 14.47408234 90.5617015 8 84 C5.04734888 85.32994383 2.97649784 86.77779316 0.70019531 89.07275391 C0.07985413 89.69324615 -0.54048706 90.3137384 -1.17962646 90.95303345 C-2.16578949 91.95468033 -2.16578949 91.95468033 -3.171875 92.9765625 C-4.1955014 94.00443375 -4.1955014 94.00443375 -5.23980713 95.05307007 C-7.41461598 97.23905845 -9.58236072 99.43190429 -11.75 101.625 C-13.2247999 103.10983255 -14.70005506 104.59421306 -16.17578125 106.078125 C-19.78915448 109.7135291 -23.39620853 113.35509824 -27 117 C-30.72617422 115.75794193 -32.39291457 113.8889325 -35 111 C-35 110.34 -35 109.68 -35 109 C-35.66 109 -36.32 109 -37 109 C-36.67 107.68 -36.34 106.36 -36 105 C-35.34 105 -34.68 105 -34 105 C-34 104.34 -34 103.68 -34 103 C-32.65649414 101.66674805 -32.65649414 101.66674805 -30.72265625 100.07421875 C-25.58025251 95.69608847 -20.74394874 91.03565134 -15.94213867 86.29223633 C-14.92815598 85.29503544 -13.9088119 84.30326057 -12.88452148 83.31665039 C-11.3887219 81.87529517 -9.90976217 80.41845204 -8.43359375 78.95703125 C-7.55759521 78.10085205 -6.68159668 77.24467285 -5.77905273 76.36254883 C-3.76250275 74.20681032 -3.76250275 74.20681032 -4.09765625 71.85717773 C-5.49008946 68.99131209 -7.53497141 66.68026711 -9.5625 64.25 C-15.32254016 57.10684037 -19.18407633 49.30336462 -23 41 C-18.06417274 40.05215266 -13.89344043 39.71579553 -9 41 C-5.20864824 44.55511057 -3.17403027 49.58343366 -0.94189453 54.19628906 C0.84581776 57.61972566 3.35751444 60.22200236 6 63 C10.14870714 60.03247134 12.79493074 56.73306572 15.4375 52.4375 C15.82365479 51.82197266 16.20980957 51.20644531 16.60766602 50.57226562 C21.14539151 43.2696144 25.2719191 36.1842427 28 28 C2.59 27.67 -22.82 27.34 -49 27 C-49 22.38 -49 17.76 -49 13 C-32.83 13 -16.66 13 0 13 C0 8.71 0 4.42 0 0 Z " fill="none" transform="translate(64,5)"/>
<path d="M0 0 C1.93166016 0.01740234 1.93166016 0.01740234 3.90234375 0.03515625 C5.19269531 0.04417969 6.48304688 0.05320313 7.8125 0.0625 C8.81152344 0.07410156 9.81054688 0.08570313 10.83984375 0.09765625 C11.1186438 0.91218262 11.1186438 0.91218262 11.40307617 1.74316406 C15.55938157 14.03845167 15.55938157 14.03845167 20.33984375 26.09765625 C22.60638082 31.34647894 24.48051378 36.6950186 26.33984375 42.09765625 C28.55320341 48.52380677 30.89247764 54.82966822 33.57421875 61.078125 C35.18019034 64.90965598 36.67755919 68.77654245 38.15234375 72.66015625 C38.41926025 73.35206055 38.68617676 74.04396484 38.96118164 74.75683594 C40.06347034 77.68321476 40.83984375 79.94297748 40.83984375 83.09765625 C36.21984375 83.09765625 31.59984375 83.09765625 26.83984375 83.09765625 C25.42382812 78.80078125 25.42382812 78.80078125 24.0078125 74.50390625 C22.69484531 70.67478455 21.26118068 66.88788806 19.83984375 63.09765625 C8.94984375 63.09765625 -1.94015625 63.09765625 -13.16015625 63.09765625 C-15.04716133 68.1821862 -15.04716133 68.1821862 -16.92919922 73.26855469 C-17.16783691 73.90825195 -17.40647461 74.54794922 -17.65234375 75.20703125 C-18.01368408 76.1810791 -18.01368408 76.1810791 -18.38232422 77.17480469 C-19.2000626 79.19630734 -20.18494663 81.147237 -21.16015625 83.09765625 C-25.45015625 83.09765625 -29.74015625 83.09765625 -34.16015625 83.09765625 C-32.01056767 75.70632644 -29.59164682 68.46010005 -26.97265625 61.22265625 C-26.38327271 59.58780273 -26.38327271 59.58780273 -25.78198242 57.91992188 C-23.00136259 50.26665533 -20.04978615 42.697875 -16.97875977 35.15722656 C-14.53047456 29.1168508 -12.31278067 23.01865223 -10.17822266 16.86132812 C-4.3725321 0.13512151 -4.3725321 0.13512151 0 0 Z " fill="none" transform="translate(126.16015625,59.90234375)"/>
<path d="M0 0 C2.92329582 2.46085355 3.77809043 4.75422771 4.875 8.375 C6.69243671 14.15134923 8.80767657 19.75783812 11.046875 25.3828125 C12 28 12 28 12 30 C4.41 30 -3.18 30 -11 30 C-9.15967146 23.86557154 -7.36606749 18.05705569 -4.9375 12.1875 C-4.68162109 11.55908203 -4.42574219 10.93066406 -4.16210938 10.28320312 C-3.44429373 8.5209565 -2.72227642 6.76042303 -2 5 C-1.33143162 3.33409528 -0.66392724 1.66775983 0 0 Z " fill="none" transform="translate(129,79)"/>
</svg>
